<svg width="60" height="60" viewBox="0 0 60 60" fill="none" xmlns="http://www.w3.org/2000/svg">
<path d="M9.27101 36.9097H50.729M9.27101 23.0903H50.729M23.0903 50.729V9.27101M36.9097 50.729V9.27101M14.7987 9.27101H45.2013C46.6673 9.27101 48.0733 9.8534 49.11 10.89C50.1466 11.9267 50.729 13.3327 50.729 14.7987V45.2013C50.729 46.6673 50.1466 48.0733 49.11 49.11C48.0733 50.1466 46.6673 50.729 45.2013 50.729H14.7987C13.3327 50.729 11.9267 50.1466 10.89 49.11C9.8534 48.0733 9.27101 46.6673 9.27101 45.2013V14.7987C9.27101 14.0728 9.41399 13.354 9.69178 12.6834C9.96958 12.0127 10.3767 11.4033 10.89 10.89C11.9267 9.8534 13.3327 9.27101 14.7987 9.27101Z" stroke="white" stroke-width="1.5" stroke-miterlimit="10" stroke-linecap="round" stroke-linejoin="round"/>
<rect x="15" y="15" width="30" height="30" rx="15" fill="#105CFF"/>
<path d="M24.9502 33.6356C24.5597 34.0261 24.5597 34.6593 24.9502 35.0498C25.3407 35.4403 25.9739 35.4403 26.3644 35.0498L25.6573 34.3427L24.9502 33.6356ZM35.3427 25.6573C35.3427 25.105 34.895 24.6573 34.3427 24.6573H25.3427C24.7904 24.6573 24.3427 25.105 24.3427 25.6573C24.3427 26.2096 24.7904 26.6573 25.3427 26.6573H33.3427V34.6573C33.3427 35.2096 33.7904 35.6573 34.3427 35.6573C34.895 35.6573 35.3427 35.2096 35.3427 34.6573V25.6573ZM25.6573 34.3427L26.3644 35.0498L35.0498 26.3644L34.3427 25.6573L33.6356 24.9502L24.9502 33.6356L25.6573 34.3427Z" fill="white"/>
</svg>
