<svg width="60" height="60" viewBox="0 0 60 60" fill="none" xmlns="http://www.w3.org/2000/svg">
<path d="M9.27101 36.9097H50.729M9.27101 23.0903H50.729M23.0903 50.729V9.27101M36.9097 50.729V9.27101M14.7987 9.27101H45.2013C46.6673 9.27101 48.0733 9.8534 49.11 10.89C50.1466 11.9267 50.729 13.3327 50.729 14.7987V45.2013C50.729 46.6673 50.1466 48.0733 49.11 49.11C48.0733 50.1466 46.6673 50.729 45.2013 50.729H14.7987C13.3327 50.729 11.9267 50.1466 10.89 49.11C9.8534 48.0733 9.27101 46.6673 9.27101 45.2013V14.7987C9.27101 14.0728 9.41399 13.354 9.69178 12.6834C9.96958 12.0127 10.3767 11.4033 10.89 10.89C11.9267 9.8534 13.3327 9.27101 14.7987 9.27101Z" stroke="white" stroke-width="1.5" stroke-miterlimit="10" stroke-linecap="round" stroke-linejoin="round"/>
<rect x="15" y="15" width="30" height="30" rx="15" fill="#105CFF"/>
<path d="M20.0125 29.2929C19.622 29.6834 19.622 30.3166 20.0125 30.7071L26.3765 37.0711C26.767 37.4616 27.4001 37.4616 27.7907 37.0711C28.1812 36.6805 28.1812 36.0474 27.7907 35.6569L22.1338 30L27.7907 24.3431C28.1812 23.9526 28.1812 23.3195 27.7907 22.9289C27.4001 22.5384 26.767 22.5384 26.3765 22.9289L20.0125 29.2929ZM39.9875 30.7071C40.378 30.3166 40.378 29.6834 39.9875 29.2929L33.6235 22.9289C33.233 22.5384 32.5998 22.5384 32.2093 22.9289C31.8188 23.3195 31.8188 23.9526 32.2093 24.3431L37.8662 30L32.2093 35.6569C31.8188 36.0474 31.8188 36.6805 32.2093 37.0711C32.5998 37.4616 33.233 37.4616 33.6235 37.0711L39.9875 30.7071ZM20.7196 30V31H39.2804V30V29H20.7196V30Z" fill="white"/>
</svg>
